<?xml version="1.0" encoding="UTF-8"?>
<svg xmlns="http://www.w3.org/2000/svg" viewBox="0 0 550 557">
  <defs>
    <style>
      .bg { fill: #0a0a12; }
      .fg { fill: #169677; }
    </style>
  </defs>
  <rect class="bg" width="550" height="557" rx="127.18" ry="127.18"/>
  <g>
    <path class="fg" d="M466.85,316.4c-12.94-14.68-39.33-23.57-58.32-29.42-39.01-12.02-79.29-13.16-118.9-2.41-39.71,10.77-76.69,32.02-112.09,52.61-27.23,15.84-58.41,33.45-89.42,39.7-19.03,3.84-43.59,4.49-61.17-4.56,9.62-.43,17.85.36,26.5-.85,36.53-5.11,73.4-28.8,102.99-49.88l23.38-16.66,34.01-23.24c16.64-11.37,33.83-20.28,52.36-28.46,36.52-16.12,76.49-23.72,116.33-19.97,35.08,3.31,68.58,13.61,98.77,31.41,24.07,14.19,40.83,35.18,41.74,63.87.83,26.41-9.32,50.41-30.8,66.08-14.73,10.74-32.01,15.68-50.23,17.1-53.35,4.18-106.68-18.17-109.51-78.33h49.72c3.86,26.74,25.9,33.61,48.8,33.17,12.61-.24,25.18-2.8,34.36-11.46,11.32-10.68,11.74-27.08,1.49-38.7Z"/>
    <path class="fg" d="M153.41,306.93l-8.82,6.08-34.4-84.06.39,7.18v99.8c-16.07,9.86-31.98,17.95-49.92,22.58l-.14-209.39,53.74.15c7.71.02,14.7,5.31,17.26,11.91l17.47,43.48,21.99,53.4,11.76,28.07-29.33,20.79Z"/>
    <path class="fg" d="M431.28,190.85c-19.93-1.35-42.14,3.97-44.35,27.57l-7.67-.42c-14.22-.77-27.62-.67-42.27.31,1.75-35.15,22.49-58.49,55.62-68.72,20.97-6.48,45.77-6.12,67.13-.54,33.88,8.85,55.14,35.68,57.67,70.9l-50.2.05c-3.6-19.48-16.46-27.83-35.93-29.15Z"/>
    <path class="fg" d="M263.62,238.1c-21.96,9.42-41.89,21.39-63.07,34.81l32.51-79.51,12.67-30.75c3.31-8.04,10.35-13.36,19.48-13.38l52.09-.12v8.01s0,64.86,0,64.86c-16.17,2.99-32.95,7.55-48.6,13.87"/>
    <path class="fg" d="M316.94,409.95l-49.54.07-.11-102.66c15.44-6.45,31.77-10.67,49.62-13.44l.02,116.04Z"/>
    <path class="fg" d="M200.84,380.8c-6.76.79-27.82,1.86-31.1-4.6-2.13-4.2-4.54-9.89-6.6-14.75l44.89-25.9c7.61-4.39,14.67-7.82,23.51-11.91l-20.39,49.24c-1.67,4.04-5.87,7.39-10.31,7.91Z"/>
    <path class="fg" d="M110.57,410.68l-49.69-.05-.12-20.4c17.12.61,32.46-1.44,49.72-6.78l.08,27.23Z"/>
  </g>
</svg>
