<?xml version="1.0" encoding="UTF-8"?>
<svg id="Layer_2" data-name="Layer 2" xmlns="http://www.w3.org/2000/svg" xmlns:xlink="http://www.w3.org/1999/xlink" viewBox="0 0 560 567">
  <defs>
    <style>
      .cls-1 {
        fill: url(#linear-gradient);
      }

      .cls-2 {
        fill: #fff;
      }

      .cls-3 {
        fill: #169677;
      }
    </style>
    <linearGradient id="linear-gradient" x1="14.05" y1="27.94" x2="529.74" y2="523.48" gradientUnits="userSpaceOnUse">
      <stop offset="0" stop-color="#1e242f"/>
      <stop offset="1" stop-color="#080d18"/>
    </linearGradient>
  </defs>
  <g id="Layer_1-2" data-name="Layer 1">
    <g>
      <rect class="cls-1" x="2.5" y="2.5" width="555" height="562" rx="129.68" ry="129.68"/>
      <path class="cls-3" d="M427.83,5c70.24,0,127.18,56.94,127.18,127.18v302.65c0,70.24-56.94,127.18-127.18,127.18H132.18c-70.24,0-127.18-56.94-127.18-127.18V132.18C5,61.94,61.94,5,132.18,5h295.65M427.83,0H132.18C96.87,0,63.68,13.75,38.71,38.71S0,96.87,0,132.18v302.65c0,35.31,13.75,68.5,38.71,93.46,24.96,24.96,58.16,38.71,93.46,38.71h295.65c35.31,0,68.5-13.75,93.46-38.71,24.96-24.96,38.71-58.16,38.71-93.46V132.18c0-35.31-13.75-68.5-38.71-93.46C496.33,13.75,463.13,0,427.83,0h0Z"/>
    </g>
    <g>
      <path class="cls-3" d="M461.95,269.9c-12.27-13.92-37.3-22.35-55.31-27.9-36.99-11.39-75.2-12.48-112.76-2.29-37.66,10.22-72.73,30.37-106.3,49.89-25.83,15.02-55.4,31.72-84.81,37.65-18.05,3.64-41.34,4.26-58.01-4.33,9.12-.4,16.93.34,25.13-.81,34.64-4.84,69.62-27.31,97.68-47.3l22.17-15.8,32.25-22.04c15.78-10.79,32.08-19.23,49.65-26.99,34.63-15.29,72.55-22.5,110.33-18.94,33.27,3.14,65.04,12.91,93.67,29.79,22.83,13.45,38.72,33.36,39.58,60.57.79,25.05-8.84,47.81-29.21,62.67-13.97,10.19-30.36,14.87-47.64,16.22-50.59,3.96-101.18-17.23-103.85-74.29h47.15c3.66,25.36,24.56,31.87,46.28,31.46,11.96-.23,23.88-2.66,32.59-10.87,10.74-10.13,11.13-25.68,1.41-36.7Z"/>
      <path class="cls-3" d="M164.69,260.92l-8.36,5.77-32.62-79.72.37,6.81v94.65c-15.24,9.35-30.33,17.02-47.34,21.42l-.13-198.58,50.97.14c7.31.02,13.94,5.03,16.37,11.29l16.56,41.24,20.86,50.64,11.16,26.62-27.82,19.72Z"/>
      <path class="cls-3" d="M428.22,150.83c-18.9-1.28-39.96,3.77-42.06,26.15l-7.28-.4c-13.49-.73-26.2-.64-40.09.29,1.66-33.34,21.33-55.47,52.75-65.17,19.88-6.14,43.41-5.81,63.67-.52,32.13,8.39,52.3,33.84,54.69,67.24l-47.6.05c-3.42-18.48-15.61-26.39-34.08-27.65Z"/>
      <path class="cls-3" d="M269.21,195.65c-20.83,8.93-39.73,20.28-59.81,33.01l30.84-75.4,12.01-29.16c3.14-7.62,9.81-12.67,18.48-12.69l49.4-.11v7.59s0,61.52,0,61.52c-15.34,2.83-31.25,7.16-46.09,13.15"/>
      <path class="cls-3" d="M319.77,358.62l-46.98.06-.1-97.37c14.65-6.12,30.13-10.12,47.06-12.74l.02,110.05Z"/>
      <path class="cls-3" d="M209.67,330.98c-6.41.75-26.38,1.77-29.49-4.36-2.02-3.98-4.31-9.38-6.26-13.99l42.57-24.56c7.22-4.16,13.91-7.41,22.29-11.29l-19.34,46.7c-1.59,3.83-5.56,7.01-9.78,7.5Z"/>
      <path class="cls-3" d="M124.06,359.31l-47.12-.05-.11-19.35c16.24.58,30.79-1.37,47.16-6.43l.07,25.83Z"/>
    </g>
    <g>
      <path class="cls-2" d="M89.04,442.43h-11.65v-59.82h18.18l10.88,47.04,10.8-47.04h17.98v59.82h-11.65v-40.46c0-1.16.01-2.79.04-4.89.03-2.1.04-3.71.04-4.85l-11.32,50.2h-12.13l-11.24-50.2c0,1.14.01,2.75.04,4.85.03,2.1.04,3.73.04,4.89v40.46Z"/>
      <path class="cls-2" d="M147.56,402.98c3.06-3.9,8.31-5.84,15.75-5.84,4.84,0,9.14.96,12.91,2.88,3.76,1.92,5.64,5.55,5.64,10.88v20.29c0,1.41.03,3.11.08,5.11.08,1.52.31,2.54.69,3.08.38.54.95.99,1.7,1.34v1.7h-12.58c-.35-.89-.6-1.73-.73-2.52-.14-.78-.24-1.68-.32-2.68-1.6,1.73-3.44,3.21-5.52,4.42-2.49,1.43-5.3,2.15-8.44,2.15-4,0-7.31-1.14-9.92-3.43-2.61-2.29-3.92-5.53-3.92-9.72,0-5.44,2.1-9.37,6.29-11.81,2.3-1.33,5.68-2.27,10.15-2.84l3.94-.49c2.14-.27,3.67-.61,4.59-1.01,1.65-.7,2.48-1.8,2.48-3.29,0-1.81-.63-3.06-1.89-3.75-1.26-.69-3.11-1.04-5.54-1.04-2.73,0-4.67.68-5.8,2.03-.81,1-1.35,2.35-1.62,4.06h-11.16c.24-3.87,1.33-7.05,3.25-9.54ZM156.16,434.07c1.08.89,2.41,1.34,3.98,1.34,2.49,0,4.78-.73,6.88-2.19,2.1-1.46,3.19-4.13,3.27-7.99v-4.3c-.73.46-1.47.83-2.21,1.12-.74.28-1.77.55-3.06.79l-2.6.49c-2.43.43-4.18.96-5.23,1.58-1.79,1.06-2.68,2.69-2.68,4.91,0,1.97.55,3.4,1.66,4.26Z"/>
      <path class="cls-2" d="M230.39,414.06h-11.85c-.22-1.65-.77-3.14-1.66-4.46-1.3-1.79-3.31-2.68-6.05-2.68-3.9,0-6.56,1.93-7.99,5.8-.76,2.06-1.14,4.79-1.14,8.2s.38,5.86,1.14,7.83c1.38,3.68,3.98,5.52,7.79,5.52,2.71,0,4.63-.73,5.76-2.19,1.14-1.46,1.83-3.35,2.07-5.68h11.81c-.27,3.52-1.54,6.84-3.81,9.98-3.63,5.06-9,7.59-16.11,7.59s-12.35-2.11-15.71-6.33c-3.36-4.22-5.03-9.7-5.03-16.44,0-7.6,1.85-13.51,5.56-17.73,3.71-4.22,8.82-6.33,15.34-6.33,5.55,0,10.08,1.24,13.62,3.73,3.53,2.49,5.62,6.89,6.27,13.19Z"/>
      <path class="cls-2" d="M260.99,433.79c2.95,0,5.34-.32,7.18-.97,3.49-1.24,5.23-3.56,5.23-6.94,0-1.97-.87-3.5-2.6-4.59-1.73-1.06-4.45-1.99-8.16-2.8l-6.33-1.42c-6.22-1.41-10.53-2.94-12.91-4.59-4.03-2.76-6.05-7.07-6.05-12.95,0-5.36,1.95-9.81,5.84-13.35,3.9-3.54,9.62-5.32,17.17-5.32,6.3,0,11.68,1.67,16.13,5.01,4.45,3.34,6.78,8.19,7,14.55h-12.01c-.22-3.6-1.79-6.15-4.71-7.67-1.95-1-4.37-1.5-7.26-1.5-3.22,0-5.79.65-7.71,1.95-1.92,1.3-2.88,3.11-2.88,5.44,0,2.14.95,3.73,2.84,4.79,1.22.7,3.81,1.53,7.79,2.48l10.31,2.48c4.52,1.08,7.93,2.53,10.23,4.34,3.57,2.81,5.36,6.89,5.36,12.22s-2.09,10-6.27,13.62c-4.18,3.61-10.08,5.42-17.71,5.42s-13.92-1.78-18.38-5.34c-4.46-3.56-6.7-8.45-6.7-14.67h11.93c.38,2.73,1.12,4.78,2.23,6.13,2.03,2.46,5.51,3.69,10.43,3.69Z"/>
      <path class="cls-2" d="M327.34,442.43l-6.94-32.22-7.02,32.22h-12.01l-12.42-44.23h12.42l6.9,31.74,6.37-31.74h11.73l6.74,31.86,6.9-31.86h12.05l-12.82,44.23h-11.89Z"/>
      <path class="cls-2" d="M396.29,429.44c-.3,2.62-1.66,5.29-4.1,7.99-3.79,4.3-9.09,6.45-15.91,6.45-5.63,0-10.59-1.81-14.89-5.44-4.3-3.62-6.45-9.52-6.45-17.69,0-7.66,1.94-13.53,5.82-17.61,3.88-4.09,8.92-6.13,15.12-6.13,3.68,0,6.99.69,9.94,2.07,2.95,1.38,5.38,3.56,7.3,6.53,1.73,2.62,2.85,5.67,3.37,9.13.3,2.03.42,4.95.37,8.77h-30.27c.16,4.44,1.56,7.55,4.18,9.33,1.6,1.11,3.52,1.66,5.76,1.66,2.38,0,4.32-.68,5.8-2.03.81-.73,1.53-1.75,2.15-3.04h11.81ZM384.84,415.89c-.19-3.06-1.12-5.38-2.78-6.96s-3.73-2.37-6.19-2.37c-2.68,0-4.76.84-6.23,2.52-1.48,1.68-2.4,3.95-2.78,6.82h17.98Z"/>
      <path class="cls-2" d="M442.51,429.44c-.3,2.62-1.66,5.29-4.1,7.99-3.79,4.3-9.09,6.45-15.91,6.45-5.63,0-10.59-1.81-14.89-5.44-4.3-3.62-6.45-9.52-6.45-17.69,0-7.66,1.94-13.53,5.82-17.61,3.88-4.09,8.92-6.13,15.12-6.13,3.68,0,6.99.69,9.94,2.07,2.95,1.38,5.38,3.56,7.3,6.53,1.73,2.62,2.85,5.67,3.37,9.13.3,2.03.42,4.95.37,8.77h-30.27c.16,4.44,1.56,7.55,4.18,9.33,1.6,1.11,3.52,1.66,5.76,1.66,2.38,0,4.32-.68,5.8-2.03.81-.73,1.53-1.75,2.15-3.04h11.81ZM431.07,415.89c-.19-3.06-1.12-5.38-2.78-6.96s-3.73-2.37-6.19-2.37c-2.68,0-4.76.84-6.23,2.52-1.48,1.68-2.4,3.95-2.78,6.82h17.98Z"/>
      <path class="cls-2" d="M487.92,402.94c3.57,3.81,5.36,9.42,5.36,16.8,0,7.79-1.75,13.73-5.26,17.82-3.5,4.09-8.02,6.13-13.53,6.13-3.52,0-6.44-.88-8.77-2.64-1.27-.97-2.52-2.39-3.73-4.26v23.05h-11.44v-61.64h11.08v6.53c1.24-1.92,2.57-3.44,3.98-4.55,2.57-1.97,5.63-2.96,9.17-2.96,5.17,0,9.55,1.91,13.15,5.72ZM481.35,420.31c0-3.41-.78-6.43-2.33-9.05-1.56-2.62-4.08-3.94-7.57-3.94-4.19,0-7.07,1.99-8.64,5.97-.81,2.11-1.22,4.79-1.22,8.04,0,5.14,1.37,8.75,4.1,10.84,1.62,1.22,3.54,1.83,5.76,1.83,3.22,0,5.67-1.24,7.37-3.73,1.69-2.49,2.54-5.8,2.54-9.94Z"/>
    </g>
  </g>
</svg>
